<?xml version="1.0" standalone="no"?>
<!DOCTYPE svg PUBLIC "-//W3C//DTD SVG 20010904//EN"
 "http://www.w3.org/TR/2001/REC-SVG-20010904/DTD/svg10.dtd">
<svg version="1.0" xmlns="http://www.w3.org/2000/svg"
 width="700.000000pt" height="700.000000pt" viewBox="0 0 700.000000 700.000000"
 preserveAspectRatio="xMidYMid meet">
<metadata>
Created by potrace 1.11, written by Peter Selinger 2001-2013
</metadata>
<g transform="translate(0.000000,700.000000) scale(0.100000,-0.100000)"
fill="#000000" stroke="none">
<path d="M4695 6338 c-265 -28 -504 -120 -715 -275 -217 -160 -407 -417 -498
-674 -61 -172 -77 -274 -76 -479 0 -126 5 -206 16 -252 10 -47 11 -68 4 -69
-16 -2 -125 2 -161 6 -75 7 -282 34 -316 40 -13 3 -58 11 -99 19 -99 19 -244
53 -300 70 -201 62 -273 86 -395 133 -192 74 -470 213 -650 324 -82 51 -152
95 -155 98 -3 3 -34 26 -70 50 -36 25 -67 47 -70 51 -3 3 -32 25 -64 49 -189
141 -552 492 -643 621 -8 11 -19 20 -24 20 -21 0 -139 -282 -155 -370 -2 -14
-9 -47 -14 -73 -17 -83 -23 -149 -23 -267 0 -102 10 -236 18 -250 2 -3 6 -24
10 -47 10 -72 74 -253 121 -346 87 -174 230 -356 358 -457 32 -25 67 -53 78
-62 12 -10 25 -18 30 -18 4 0 8 -4 8 -9 0 -9 -89 -6 -136 4 -12 3 -39 7 -60
10 -108 16 -307 83 -396 133 -21 12 -39 18 -42 14 -10 -16 5 -190 25 -286 101
-496 439 -894 910 -1068 52 -20 119 -41 149 -48 43 -10 50 -15 33 -21 -18 -7
-63 -16 -118 -24 -11 -2 -40 -6 -65 -10 -47 -7 -291 -8 -325 -1 -11 2 -40 7
-64 11 -50 8 -51 13 5 -119 102 -242 305 -488 514 -622 25 -16 47 -32 50 -35
7 -8 195 -100 245 -120 127 -50 292 -85 427 -92 27 -1 47 -5 45 -9 -4 -10
-116 -90 -207 -147 -47 -30 -96 -61 -110 -70 -49 -33 -267 -139 -360 -176 -52
-20 -102 -40 -110 -45 -54 -27 -426 -121 -535 -135 -27 -3 -63 -8 -80 -11 -16
-2 -46 -7 -65 -10 -64 -10 -464 -12 -544 -3 -44 5 -81 8 -83 6 -7 -7 228 -141
382 -217 354 -175 661 -276 1105 -365 29 -5 145 -21 230 -31 30 -3 69 -7 85
-9 182 -23 564 -23 800 -1 17 2 62 6 100 10 39 4 93 11 120 16 28 5 68 11 90
14 22 3 85 14 141 26 55 11 110 22 122 25 12 2 72 17 134 34 377 101 731 255
1058 459 94 59 267 178 280 192 3 3 25 21 50 40 166 128 377 327 515 485 33
37 65 73 70 79 144 158 383 516 517 776 146 284 310 719 354 940 3 14 11 50
19 80 13 52 48 237 61 325 3 22 7 51 9 65 2 14 7 54 10 90 3 36 8 83 11 105 2
22 6 140 8 262 4 241 0 228 66 273 103 71 310 266 434 411 89 104 220 279 213
285 -2 2 -47 -14 -100 -36 -161 -65 -422 -140 -572 -163 -16 -3 -46 -8 -65
-11 -87 -15 -96 -15 -76 -3 66 41 191 143 257 209 146 147 260 323 330 512 20
52 18 66 -4 48 -21 -18 -244 -127 -337 -165 -127 -52 -290 -105 -426 -138
l-122 -29 -48 48 c-126 124 -251 207 -444 295 -186 85 -474 129 -695 105z"/>
</g>
</svg>
